<svg width="97" height="97" xmlns="http://www.w3.org/2000/svg"><defs><pattern id="prefix__a" width="12" height="12" patternUnits="userSpaceOnUse"><path d="M12.5 0.5H0.5v12.5" fill="none" stroke="rgb(209 213 219)"/></pattern></defs><rect width="100%" height="100%" fill="rgb(107 112 128)"/><rect width="100%" height="100%" fill="url(#prefix__a)"/><rect width="12" height="12" x="24.5" y="12.5" stroke="#000" fill="rgb(253 224 71)"/><rect width="12" height="12" x="60.5" y="12.5" stroke="#000" fill="rgb(253 224 71)"/><rect width="12" height="12" x="12.5" y="24.5" stroke="#000" fill="rgb(253 224 71)"/><rect width="12" height="12" x="36.5" y="24.5" stroke="#000" fill="rgb(253 224 71)"/><rect width="12" height="12" x="48.5" y="24.5" stroke="#000" fill="rgb(253 224 71)"/><rect width="12" height="12" x="60.5" y="24.5" stroke="#000" fill="rgb(253 224 71)"/><rect width="12" height="12" x="24.5" y="36.5" stroke="#000" fill="rgb(253 224 71)"/><rect width="12" height="12" x="36.5" y="36.5" stroke="#000" fill="rgb(253 224 71)"/><rect width="12" height="12" x="48.5" y="36.5" stroke="#000" fill="rgb(253 224 71)"/><rect width="12" height="12" x="24.5" y="48.5" stroke="#000" fill="rgb(253 224 71)"/><rect width="12" height="12" x="36.5" y="48.5" stroke="#000" fill="rgb(253 224 71)"/><rect width="12" height="12" x="48.5" y="48.5" stroke="#000" fill="rgb(253 224 71)"/><rect width="12" height="12" x="72.5" y="48.5" stroke="#000" fill="rgb(253 224 71)"/><rect width="12" height="12" x="12.5" y="60.5" stroke="#000" fill="rgb(253 224 71)"/><rect width="12" height="12" x="24.5" y="60.5" stroke="#000" fill="rgb(253 224 71)"/><rect width="12" height="12" x="48.5" y="72.5" stroke="#000" fill="rgb(253 224 71)"/> <rect width="12" height="12" x="60.5" y="60.5" stroke="#000" fill="rgb(217 119 6)"/></svg> 